<?xml version="1.0" encoding="UTF-8" standalone="no"?>
<!-- Created with Inkscape (http://www.inkscape.org/) -->

<svg
   xmlns:dc="http://purl.org/dc/elements/1.1/"
   xmlns:cc="http://creativecommons.org/ns#"
   xmlns:rdf="http://www.w3.org/1999/02/22-rdf-syntax-ns#"
   xmlns:svg="http://www.w3.org/2000/svg"
   xmlns="http://www.w3.org/2000/svg"
   xmlns:sodipodi="http://sodipodi.sourceforge.net/DTD/sodipodi-0.dtd"
   xmlns:inkscape="http://www.inkscape.org/namespaces/inkscape"
   version="1.1"
   id="svg2"
   xml:space="preserve"
   width="512"
   height="320"
   viewBox="0 0 511.99999 319.99999"
   sodipodi:docname="logo_SetupWizard.svg"
   inkscape:version="0.92.3 (2405546, 2018-03-11)"
   inkscape:export-filename="/hdd/android/solitude-os/media/logo/welcome_wizard.png"
   inkscape:export-xdpi="96"
   inkscape:export-ydpi="96"><metadata
     id="metadata8"><rdf:RDF><cc:Work
         rdf:about=""><dc:format>image/svg+xml</dc:format><dc:type
           rdf:resource="http://purl.org/dc/dcmitype/StillImage" /><dc:title></dc:title></cc:Work></rdf:RDF></metadata><defs
     id="defs6" /><sodipodi:namedview
     pagecolor="#ffffff"
     bordercolor="#666666"
     borderopacity="1"
     objecttolerance="10"
     gridtolerance="10"
     guidetolerance="10"
     inkscape:pageopacity="0"
     inkscape:pageshadow="2"
     inkscape:window-width="1853"
     inkscape:window-height="1016"
     id="namedview4"
     showgrid="false"
     inkscape:zoom="1.0012631"
     inkscape:cx="441.74151"
     inkscape:cy="93.386503"
     inkscape:window-x="67"
     inkscape:window-y="27"
     inkscape:window-maximized="1"
     inkscape:current-layer="layer1" /><g
     inkscape:groupmode="layer"
     id="layer3"
     inkscape:label="BG"
     sodipodi:insensitive="true"><rect
       style="fill:#ffffff;fill-opacity:1"
       id="rect29"
       width="512"
       height="320"
       x="0"
       y="0" /></g><g
     inkscape:groupmode="layer"
     id="layer1"
     inkscape:label="Logo"
     transform="matrix(1.3333333,0,0,-1.3333333,0,319.99995)"
     style="display:inline"><path
       style="display:inline;fill:#266a78;fill-opacity:1;stroke-width:0.98505956"
       d="m 186.0441,67.830944 c -2.61075,1.799154 -6.09454,5.323347 -7.74176,7.831503 -1.64721,2.508192 -3.81967,4.849422 -4.82768,5.202756 -5.39349,1.89057 -12.36758,10.889127 -13.88378,17.914048 -0.3787,1.754579 -1.10403,3.446939 -1.61188,3.760799 -1.66808,1.03095 -4.8348,8.18214 -4.86538,10.98715 -0.0525,4.81987 -1.87754,0.14463 -2.64732,-6.78181 l -0.69248,-6.23098 -0.70475,4.43275 c -1.22659,7.71496 -0.9322,24.04295 0.52056,28.87004 1.25437,4.16797 1.22564,4.60292 -0.33673,5.09879 -0.93946,0.29816 -2.74201,1.6427 -4.00572,2.98783 l -2.29762,2.44572 h 2.666 c 3.40393,0 8.60234,2.16376 10.3968,4.3275 1.20439,1.45223 1.17132,2.13861 -0.24626,5.11131 -2.02986,4.25666 -2.0556,7.0433 -0.12628,13.67987 l 1.51117,5.19827 -6.9144,6.67528 c -3.86341,3.72981 -8.0075,8.86886 -9.39166,11.6465 -5.03787,10.10968 -2.38197,21.53857 7.04325,30.30839 4.1948,3.90312 9.19673,7.47777 9.19512,6.57134 0,-0.1545 -0.91365,-2.68353 -2.02977,-5.62005 -5.29191,-13.92328 -0.99233,-22.13533 12.23797,-23.37416 l 5.06073,-0.47386 6.53422,6.34325 c 9.03429,8.77025 11.63854,10.21369 15.52383,8.60435 1.66885,-0.69125 6.254,-4.30441 10.18928,-8.02922 5.57052,-5.2726 7.80949,-6.77318 10.11023,-6.77595 5.02953,-0.007 10.5549,2.01581 13.46694,4.92785 2.32532,2.32531 2.78653,3.61257 2.78653,7.77704 0,2.74478 -0.88633,7.32247 -1.96962,10.17263 -1.08328,2.85018 -1.96983,5.5302 -1.97012,5.95559 0,1.29223 3.97589,-1.25871 8.58423,-5.50654 6.20629,-5.72075 9.22941,-11.36114 9.86882,-18.4127 0.47482,-5.23623 0.18289,-6.62475 -2.56738,-12.21131 -2.10972,-4.28549 -5.18234,-8.24833 -9.59836,-12.37929 l -6.49529,-6.07603 1.18424,-4.12316 c 2.21112,-7.69839 2.31918,-10.72523 0.50324,-14.09724 -0.95267,-1.76901 -1.47761,-3.87976 -1.16648,-4.6905 0.87652,-2.28418 4.91715,-4.53079 9.58067,-5.32692 l 4.23944,-0.72373 -3.09018,-2.6002 c -1.6996,-1.43012 -3.54079,-2.75344 -4.09152,-2.9407 -0.64135,-0.21808 -0.47738,-2.07897 0.45613,-5.17608 1.54193,-5.11576 1.8369,-18.60852 0.57261,-26.19379 l -0.73883,-4.43276 -0.80222,4.9253 c -1.29475,7.94902 -2.08059,9.36515 -2.78572,5.01997 -0.33133,-2.04182 -1.90914,-5.77972 -3.50621,-8.30644 -1.59708,-2.5267 -3.1998,-6.008987 -3.56159,-7.738401 -0.9269,-4.430705 -5.68325,-10.622483 -10.61561,-13.819329 -2.30674,-1.495076 -4.56348,-3.303378 -5.01495,-4.01844 -3.30228,-5.230107 -13.29795,-13.98745 -15.96537,-13.98745 -0.67223,0 -3.35832,1.472049 -5.96909,3.271214 z"
       id="path120"
       inkscape:connector-curvature="0" /></g><g
     inkscape:groupmode="layer"
     id="layer2"
     inkscape:label="Text"
     transform="matrix(1.3333333,0,0,-1.3333333,0,319.99995)"
     style="display:inline"><path
       style="fill:#266a78;fill-opacity:1;stroke-width:3.99495363"
       d=""
       id="path122"
       inkscape:connector-curvature="0"
       transform="matrix(0.75000002,0,0,-0.75000002,0,2000.0001)" /><g
       id="g43"
       transform="translate(25.261577,9.4908435)"><path
         inkscape:connector-curvature="0"
         id="path20"
         style="fill:#79d1e4;fill-opacity:1;fill-rule:nonzero;stroke:none;stroke-width:0.02324741"
         d="m 34.328189,3.6543388 c -2.310789,0.7694889 -4.12571,1.769125 -5.446864,2.9942639 l 1.745181,3.6777393 c 1.257224,-1.1321495 2.868727,-2.0527477 4.832907,-2.7594724 1.964171,-0.7067157 3.984602,-1.0577558 6.058971,-1.0577558 2.735288,0 4.778737,0.4626258 6.130801,1.3901997 1.352074,0.9252427 2.028101,2.1596795 2.028101,3.7009885 0,1.13214 -0.370099,2.050417 -1.108196,2.759463 -0.739735,0.706725 -1.650102,1.248389 -2.734826,1.624992 -1.084956,0.376612 -2.616967,0.802037 -4.598568,1.27396 -2.483288,0.597462 -4.488148,1.194914 -6.012481,1.792375 -1.524564,0.59513 -2.828046,1.515728 -3.912771,2.757141 -1.084725,1.241412 -1.627082,2.915226 -1.627082,5.023762 0,1.759827 0.462856,3.347626 1.390662,4.763397 0.927796,1.413441 2.334038,2.543267 4.22079,3.391794 1.886762,0.850859 4.22848,1.276284 7.025606,1.276284 1.948591,0 3.866272,-0.253397 5.753033,-0.755538 1.886521,-0.504471 3.505943,-1.22747 4.858007,-2.168986 l -1.557343,-3.773051 c -1.382983,0.878752 -2.861056,1.548276 -4.432119,2.003925 -1.572682,0.455651 -3.112594,0.683476 -4.621578,0.683476 -2.671127,0 -4.675987,-0.485876 -6.01248,-1.459941 -1.336725,-0.974063 -2.002992,-2.234072 -2.002992,-3.77305 0,-1.132149 0.37591,-2.052748 1.131215,-2.759472 0.753678,-0.706716 1.689153,-1.257687 2.804797,-1.650563 1.115875,-0.392886 2.634397,-0.809013 4.552078,-1.24839 2.483289,-0.599783 4.478378,-1.194913 5.987363,-1.792374 1.508992,-0.599783 2.806665,-1.508752 3.89139,-2.736213 1.084724,-1.225139 1.627082,-2.875711 1.627082,-4.949378 0,-1.729601 -0.472618,-3.3104245 -1.415763,-4.7401477 C 51.939725,5.7117308 50.510242,4.5819037 48.592562,3.7473284 46.67489,2.9150664 44.31737,2.4989399 41.518384,2.4989399 c -2.483057,0 -4.879166,0.38591 -7.190195,1.1553989" /><path
         inkscape:connector-curvature="0"
         id="path22"
         style="fill:#79d1e4;fill-opacity:1;fill-rule:nonzero;stroke:none;stroke-width:0.02324741"
         d="m 75.540492,7.6621904 c 1.272563,0.7392635 2.270109,1.776101 2.994495,3.1128256 0.722528,1.334402 1.084725,2.866404 1.084725,4.596015 0,1.729601 -0.362197,3.263935 -1.084725,4.598337 -0.724386,1.336724 -1.721932,2.366577 -2.994495,3.089576 -1.272795,0.720667 -2.711807,1.083328 -4.315649,1.083328 -1.602214,0 -3.041226,-0.362661 -4.31402,-1.083328 -1.272564,-0.722999 -2.279871,-1.752852 -3.017746,-3.089576 -0.739966,-1.334402 -1.107973,-2.868736 -1.107973,-4.598337 0,-1.729611 0.368007,-3.261613 1.107973,-4.596015 0.737875,-1.3367246 1.745182,-2.3735621 3.017746,-3.1128256 1.272794,-0.7392723 2.711806,-1.1065773 4.31402,-1.1065773 1.603842,0 3.042854,0.367305 4.315649,1.1065773 z M 64.530285,4.2448242 c -1.981602,1.0996015 -3.529184,2.6153297 -4.644828,4.5495155 -1.117735,1.9318553 -1.675673,4.1264133 -1.675673,6.5766913 0,2.4526 0.557938,4.644827 1.675673,6.579013 1.115644,1.934186 2.663226,3.442938 4.644828,4.526266 1.97975,1.085659 4.211038,1.627323 6.694558,1.627323 2.483057,0 4.708758,-0.541664 6.672937,-1.627323 1.964171,-1.083328 3.505942,-2.59208 4.621809,-4.526266 1.115644,-1.934186 1.673582,-4.126413 1.673582,-6.579013 0,-2.450278 -0.557938,-4.644836 -1.673582,-6.5766913 C 81.403722,6.8601539 79.861951,5.3444257 77.89778,4.2448242 75.933601,3.1428915 73.7079,2.5942518 71.224843,2.5942518 c -2.48352,0 -4.714808,0.5486397 -6.694558,1.6505724" /><path
         inkscape:connector-curvature="0"
         id="path24"
         style="fill:#79d1e4;fill-opacity:1;fill-rule:nonzero;stroke:none;stroke-width:0.02324741"
         d="m 90.46509,37.865212 h 4.526973 V 2.8755519 H 90.46509 V 37.865212" /><path
         inkscape:connector-curvature="0"
         id="path26"
         style="fill:#79d1e4;fill-opacity:1;fill-rule:nonzero;stroke:none;stroke-width:0.02324741"
         d="m 103.6215,27.868832 h 4.52673 V 2.8755519 h -4.52673 z m 0.0716,5.658415 c -0.58305,0.564914 -0.87364,1.257687 -0.87364,2.075997 0,0.815979 0.29059,1.515728 0.87364,2.096915 0.58119,0.581187 1.31138,0.874099 2.19269,0.874099 0.87945,0 1.60965,-0.276637 2.1927,-0.825277 0.58118,-0.553293 0.87177,-1.236768 0.87177,-2.052747 0,-0.848536 -0.29059,-1.56455 -0.87177,-2.145737 -0.58305,-0.58351 -1.31325,-0.871777 -2.1927,-0.871777 -0.88131,0 -1.6115,0.283614 -2.19269,0.848527" /><path
         inkscape:connector-curvature="0"
         id="path28"
         style="fill:#79d1e4;fill-opacity:1;fill-rule:nonzero;stroke:none;stroke-width:0.02324741"
         d="m 130.82886,4.3378138 c -0.66045,-0.5649135 -1.47783,-0.999645 -2.45237,-1.29721 -0.9743,-0.297565 -1.97951,-0.446352 -3.01774,-0.446352 -2.5163,0 -4.46489,0.6741769 -5.84789,2.0271755 -1.38298,1.3506762 -2.07459,3.2825308 -2.07459,5.8002267 v 13.720618 h -4.24405 v 3.72656 h 4.24405 v 5.470114 h 4.52673 v -5.470114 h 7.16718 v -3.72656 H 121.963 V 10.607633 c 0,-1.3506762 0.33709,-2.3875048 1.01522,-3.1105034 0.67393,-0.7229896 1.64056,-1.0833277 2.89964,-1.0833277 1.38299,0 2.5607,0.3928859 3.5371,1.1763174 l 1.4139,-3.2523055" /><path
         inkscape:connector-curvature="0"
         id="path30"
         style="fill:#79d1e4;fill-opacity:1;fill-rule:nonzero;stroke:none;stroke-width:0.02324741"
         d="M 159.59381,27.868832 V 2.8755519 h -4.29055 v 3.7730508 c -0.91245,-1.2902343 -2.11527,-2.2875482 -3.60683,-2.9942639 -1.49342,-0.7067246 -3.12049,-1.060087 -4.88125,-1.060087 -3.33182,0 -5.95831,0.9182758 -7.87414,2.7571409 -1.91953,1.8388739 -2.8764,4.5495249 -2.8764,8.1342733 v 14.383166 h 4.52675 V 14.004081 c 0,-2.420052 0.58117,-4.2519508 1.74332,-5.4933636 1.16422,-1.2414128 2.83013,-1.8621147 4.99959,-1.8621147 2.38843,0 4.27495,0.7229897 5.65818,2.1689777 1.38298,1.4459886 2.07436,3.4894376 2.07436,6.1303476 v 12.920904 h 4.52697" /><path
         inkscape:connector-curvature="0"
         id="path32"
         style="fill:#79d1e4;fill-opacity:1;fill-rule:nonzero;stroke:none;stroke-width:0.02324741"
         d="m 183.21851,7.6621904 c 1.28791,0.7392635 2.29219,1.776101 3.01751,3.1128256 0.72301,1.334402 1.08334,2.866404 1.08334,4.596015 0,1.729601 -0.36033,3.263935 -1.08334,4.598337 -0.72532,1.336724 -1.7296,2.366577 -3.01751,3.089576 -1.29023,0.720667 -2.71994,1.083328 -4.29379,1.083328 -1.60175,0 -3.04077,-0.362661 -4.31239,-1.083328 -1.27397,-0.722999 -2.28058,-1.752852 -3.01984,-3.089576 -0.73927,-1.334402 -1.10658,-2.868736 -1.10658,-4.598337 0,-1.729611 0.36731,-3.261613 1.10658,-4.596015 0.73926,-1.3367246 1.74587,-2.3735621 3.01984,-3.1128256 1.27162,-0.7392723 2.71064,-1.1065773 4.31239,-1.1065773 1.57385,0 3.00356,0.367305 4.29379,1.1065773 z m 8.58062,30.2030216 V 2.8755519 h -4.33796 v 3.9613524 c -1.00662,-1.3832151 -2.28057,-2.4363263 -3.81956,-3.1593248 -1.54129,-0.7229896 -3.23835,-1.0833277 -5.09117,-1.0833277 -2.42238,0 -4.59137,0.534697 -6.50928,1.6017509 -1.9179,1.0693761 -3.41969,2.5688393 -4.50302,4.5053474 -1.08542,1.9318549 -1.62777,4.1566299 -1.62777,6.6696809 0,2.515364 0.54235,4.733163 1.62777,6.651075 1.08333,1.91559 2.58512,3.408069 4.50302,4.477454 1.91791,1.069375 4.0869,1.604073 6.50928,1.604073 1.79005,0 3.44061,-0.337088 4.94937,-1.013588 1.50876,-0.674177 2.76645,-1.673813 3.77306,-2.994264 v 13.769431 h 4.52626" /><path
         inkscape:transform-center-y="-37.596438"
         inkscape:transform-center-x="7.5521235"
         inkscape:connector-curvature="0"
         id="path34"
         style="fill:#79d1e4;fill-opacity:1;fill-rule:nonzero;stroke:none;stroke-width:0.02324741"
         d="m 205.16871,22.303406 c -1.46226,-1.320459 -2.32009,-3.050061 -2.57116,-5.1865 h 16.03374 c -0.2534,2.106214 -1.1089,3.828848 -2.56884,5.163251 -1.46226,1.336724 -3.27789,2.003925 -5.44687,2.003925 -2.16898,0 -3.98461,-0.660224 -5.44687,-1.980676 z m 17.70523,-8.441136 h -20.27639 c 0.28362,-2.199203 1.25071,-3.968329 2.90128,-5.3050534 1.65056,-1.3367335 3.70098,-2.0016035 6.15358,-2.0016035 2.98497,0 5.39108,1.0042896 7.21368,3.0175136 l 2.49909,-2.924524 C 220.23536,5.328152 218.82888,4.32154 217.14577,3.6310892 215.46267,2.9383161 213.5866,2.5942518 211.5106,2.5942518 c -2.6409,0 -4.98192,0.5416639 -7.02536,1.6273228 -2.04344,1.0833277 -3.62427,2.5990558 -4.73782,4.5495155 -1.1182,1.9481289 -1.67614,4.1496629 -1.67614,6.5999409 0,2.422375 0.54167,4.607635 1.62731,6.555763 1.08335,1.948129 2.57814,3.466188 4.47978,4.549516 1.90164,1.085659 4.04738,1.627323 6.43721,1.627323 2.38751,0 4.51929,-0.541664 6.39071,-1.627323 1.86909,-1.083328 3.33135,-2.601387 4.38446,-4.549516 1.05079,-1.948128 1.5785,-4.18221 1.5785,-6.695252 0,-0.348709 -0.0302,-0.802036 -0.0953,-1.369272" /><path
         inkscape:connector-curvature="0"
         id="path36"
         style="fill:#f4f6f5;fill-opacity:1;fill-rule:nonzero;stroke:none;stroke-width:0.02324741"
         d="m 264.01952,8.3456654 c 1.93185,1.0996017 3.45688,2.6176526 4.57277,4.5495156 1.11587,1.934186 1.6738,4.096188 1.6738,6.483702 0,2.389826 -0.55793,4.551838 -1.6738,6.486023 -1.11589,1.931855 -2.64092,3.449914 -4.57277,4.549516 -1.93651,1.099601 -4.11247,1.650563 -6.53252,1.650563 -2.42006,0 -4.61461,-0.550962 -6.57902,-1.650563 -1.96441,-1.099602 -3.50571,-2.617661 -4.62159,-4.549516 -1.11587,-1.934185 -1.6738,-4.096197 -1.6738,-6.486023 0,-2.387514 0.55793,-4.549516 1.6738,-6.483702 1.11588,-1.931863 2.65718,-3.4499139 4.62159,-4.5495156 1.96441,-1.0996015 4.15896,-1.6505723 6.57902,-1.6505723 2.42005,0 4.59601,0.5509708 6.53252,1.6505723 z M 248.48095,4.6911672 c -2.67112,1.4622621 -4.77269,3.4824617 -6.2954,6.0582778 -1.52503,2.578136 -2.28754,5.456161 -2.28754,8.629438 0,3.17792 0.76251,6.051292 2.28754,8.629429 1.52271,2.578138 3.62428,4.598337 6.2954,6.060599 2.67113,1.462262 5.67237,2.194559 9.00605,2.194559 3.30113,0 6.28842,-0.732297 8.95954,-2.194559 2.67346,-1.462262 4.76339,-3.473164 6.27215,-6.035027 1.50876,-2.561864 2.26431,-5.446864 2.26431,-8.655001 0,-3.205825 -0.75555,-6.088503 -2.26431,-8.652688 C 271.20993,8.1643308 269.12,6.1534293 266.44654,4.6911672 263.77542,3.2312365 260.78813,2.4989399 257.487,2.4989399 c -3.33368,0 -6.33492,0.7322966 -9.00605,2.1922273" /><path
         inkscape:connector-curvature="0"
         id="path38"
         style="fill:#f4f6f5;fill-opacity:1;fill-rule:nonzero;stroke:none;stroke-width:0.02324741"
         d="m 284.62369,3.6543388 c -2.31079,0.7694889 -4.12409,1.769125 -5.44455,2.9942639 l 1.74356,3.6777393 c 1.25769,-1.1321495 2.86874,-2.0527477 4.83314,-2.7594724 1.9644,-0.7067157 3.9846,-1.0577558 6.05827,-1.0577558 2.73622,0 4.77967,0.4626258 6.13267,1.3901997 1.35067,0.9252427 2.02717,2.1596795 2.02717,3.7009885 0,1.13214 -0.36964,2.050417 -1.1089,2.759463 -0.73927,0.706725 -1.65057,1.248389 -2.7339,1.624992 -1.08565,0.376612 -2.61766,0.802037 -4.59833,1.27396 -2.48282,0.597462 -4.48908,1.194914 -6.0141,1.792375 -1.52271,0.59513 -2.82689,1.515728 -3.91254,2.757141 -1.08333,1.241412 -1.62732,2.915226 -1.62732,5.023762 0,1.759827 0.46495,3.347626 1.39252,4.763397 0.92757,1.413441 2.33404,2.543267 4.2194,3.391794 1.88769,0.850859 4.2287,1.276284 7.02536,1.276284 1.95046,0 3.86605,-0.253397 5.75374,-0.755538 1.88769,-0.504471 3.50571,-1.22747 4.85871,-2.168986 l -1.55758,-3.773051 c -1.38322,0.878752 -2.86175,1.548276 -4.43328,2.003925 -1.57153,0.455651 -3.11283,0.683476 -4.62159,0.683476 -2.67112,0 -4.67505,-0.485876 -6.01177,-1.459941 -1.33673,-0.974063 -2.00161,-2.234072 -2.00161,-3.77305 0,-1.132149 0.3743,-2.052748 1.12983,-2.759472 0.75322,-0.706716 1.69008,-1.257687 2.80596,-1.650563 1.11588,-0.392886 2.63394,-0.809013 4.55184,-1.24839 2.48282,-0.599783 4.47745,-1.194913 5.98621,-1.792374 1.50876,-0.599783 2.80595,-1.508752 3.89161,-2.736213 1.08565,-1.225139 1.62732,-2.875711 1.62732,-4.949378 0,-1.729601 -0.47191,-3.3104245 -1.41576,-4.7401477 -0.94385,-1.4320365 -2.37356,-2.5618636 -4.29148,-3.3964389 -1.91791,-0.832262 -4.27519,-1.2483885 -7.07418,-1.2483885 -2.48282,0 -4.8773,0.38591 -7.19042,1.1553989" /><path
         inkscape:connector-curvature="0"
         id="path124"
         d="m 252.40135,3.469623 c -7.65879,2.3297054 -11.96701,8.191904 -11.92858,16.231195 0.0458,9.583242 6.98764,16.021877 17.27979,16.027332 18.86448,0.01 23.43484,-25.641868 5.68441,-31.9045863 -3.02639,-1.0677835 -8.14881,-1.2320613 -11.03562,-0.3539407 z m 12.56784,5.2040464 c 3.12643,2.0689676 5.54677,6.7328986 5.54677,10.6884676 0,7.584967 -5.33953,12.711452 -13.23968,12.711452 -14.46602,0 -17.9829,-19.756063 -4.41406,-24.7959027 3.64284,-1.3530252 8.86234,-0.7512042 12.10697,1.3959831 z"
         style="fill:#266a78;fill-opacity:1;stroke-width:0.69654232" /><path
         inkscape:connector-curvature="0"
         id="path126"
         d="m 284.57217,4.1441203 c -4.66904,1.6125616 -5.36207,2.2711586 -4.36007,4.1433989 l 0.77012,1.4390306 2.60299,-1.5383732 c 2.08861,-1.2344014 3.68123,-1.5383727 8.0599,-1.5383727 5.11513,0 5.56231,0.1223965 7.13955,1.9543302 2.04238,2.3721919 2.09076,3.2595579 0.30155,5.5341499 -1.00304,1.275153 -2.95728,2.177404 -7.13956,3.296278 -8.86048,2.370394 -11.68331,4.696514 -11.67649,9.621876 0.008,5.204607 5.07732,8.710176 12.53009,8.663534 4.55407,-0.02856 9.75665,-1.552146 9.75665,-2.857337 0,-2.409064 -0.75233,-2.78459 -3.36104,-1.677613 -3.90744,1.658073 -10.05539,1.543241 -12.44402,-0.232451 -2.32096,-1.725402 -2.90058,-4.728359 -1.26208,-6.538903 1.30289,-1.439652 2.83545,-2.081424 9.81996,-4.112141 6.59269,-1.9168 8.64027,-3.94919 8.64027,-8.576221 0,-2.8486716 -0.33933,-3.7806322 -1.97038,-5.4117008 -3.57894,-3.5789391 -10.74175,-4.4716431 -17.40744,-2.1694849 z"
         style="fill:#266a78;fill-opacity:1;stroke-width:0.69654232" /></g></g></svg>