<?xml version="1.0" encoding="UTF-8" standalone="no"?>
<!-- Created with Inkscape (http://www.inkscape.org/) -->

<svg
   xmlns:dc="http://purl.org/dc/elements/1.1/"
   xmlns:cc="http://creativecommons.org/ns#"
   xmlns:rdf="http://www.w3.org/1999/02/22-rdf-syntax-ns#"
   xmlns:svg="http://www.w3.org/2000/svg"
   xmlns="http://www.w3.org/2000/svg"
   xmlns:sodipodi="http://sodipodi.sourceforge.net/DTD/sodipodi-0.dtd"
   xmlns:inkscape="http://www.inkscape.org/namespaces/inkscape"
   version="1.1"
   id="svg2"
   xml:space="preserve"
   width="2666.6667"
   height="2666.6667"
   viewBox="0 0 2666.6667 2666.6667"
   sodipodi:docname="logo_raw.svg"
   inkscape:version="0.92.3 (2405546, 2018-03-11)"><metadata
     id="metadata8"><rdf:RDF><cc:Work
         rdf:about=""><dc:format>image/svg+xml</dc:format><dc:type
           rdf:resource="http://purl.org/dc/dcmitype/StillImage" /><dc:title></dc:title></cc:Work></rdf:RDF></metadata><defs
     id="defs6" /><sodipodi:namedview
     pagecolor="#ffffff"
     bordercolor="#666666"
     borderopacity="1"
     objecttolerance="10"
     gridtolerance="10"
     guidetolerance="10"
     inkscape:pageopacity="0"
     inkscape:pageshadow="2"
     inkscape:window-width="1853"
     inkscape:window-height="1016"
     id="namedview4"
     showgrid="false"
     inkscape:zoom="0.1251579"
     inkscape:cx="1332.5077"
     inkscape:cy="976.94747"
     inkscape:window-x="67"
     inkscape:window-y="27"
     inkscape:window-maximized="1"
     inkscape:current-layer="g10" /><g
     id="g10"
     inkscape:groupmode="layer"
     inkscape:label="BG"
     transform="matrix(1.3333333,0,0,-1.3333333,0,2666.6667)"><g
       id="g12"
       transform="scale(0.1)"><g
         id="g14"
         transform="scale(1.22699)"><path
           d="M 16300,0 H 0 V 16300 H 16300 V 0"
           style="fill:#266a78;fill-opacity:1;fill-rule:nonzero;stroke:none"
           id="path16"
           inkscape:connector-curvature="0" /></g></g></g><g
     inkscape:groupmode="layer"
     id="layer2"
     inkscape:label="Text"
     transform="matrix(1.3333333,0,0,-1.3333333,0,2666.6667)"
     style="display:inline"><path
       transform="scale(0.1)"
       d="m 4294.3,5371.3 c -99.4,33.1 -177.47,76.1 -234.3,128.8 l 75.07,158.2 c 54.08,-48.7 123.4,-88.3 207.89,-118.7 84.49,-30.4 171.4,-45.5 260.63,-45.5 117.66,0 205.56,19.9 263.72,59.8 58.16,39.8 87.24,92.9 87.24,159.2 0,48.7 -15.92,88.2 -47.67,118.7 -31.82,30.4 -70.98,53.7 -117.64,69.9 -46.67,16.2 -112.57,34.5 -197.81,54.8 -106.82,25.7 -193.06,51.4 -258.63,77.1 -65.58,25.6 -121.65,65.2 -168.31,118.6 -46.66,53.4 -69.99,125.4 -69.99,216.1 0,75.7 19.91,144 59.82,204.9 39.91,60.8 100.4,109.4 181.56,145.9 81.16,36.6 181.89,54.9 302.21,54.9 83.82,0 166.31,-10.9 247.47,-32.5 81.15,-21.7 150.81,-52.8 208.97,-93.3 l -66.99,-162.3 c -59.49,37.8 -123.07,66.6 -190.65,86.2 -67.65,19.6 -133.89,29.4 -198.8,29.4 -114.9,0 -201.14,-20.9 -258.63,-62.8 -57.5,-41.9 -86.16,-96.1 -86.16,-162.3 0,-48.7 16.17,-88.3 48.66,-118.7 32.42,-30.4 72.66,-54.1 120.65,-71 48,-16.9 113.32,-34.8 195.81,-53.7 106.82,-25.8 192.64,-51.4 257.55,-77.1 64.91,-25.8 120.73,-64.9 167.39,-117.7 46.66,-52.7 69.99,-123.7 69.99,-212.9 0,-74.4 -20.33,-142.4 -60.9,-203.9 -40.58,-61.6 -102.07,-110.2 -184.56,-146.1 -82.49,-35.8 -183.9,-53.7 -304.3,-53.7 -106.81,0 -209.88,16.6 -309.29,49.7"
       style="fill:#79d1e4;fill-opacity:1;fill-rule:nonzero;stroke:none"
       id="path20"
       inkscape:connector-curvature="0" /><path
       transform="scale(0.1)"
       d="m 6067.07,5543.7 c 54.74,31.8 97.65,76.4 128.81,133.9 31.08,57.4 46.66,123.3 46.66,197.7 0,74.4 -15.58,140.4 -46.66,197.8 -31.16,57.5 -74.07,101.8 -128.81,132.9 -54.75,31 -116.65,46.6 -185.64,46.6 -68.92,0 -130.82,-15.6 -185.57,-46.6 -54.74,-31.1 -98.07,-75.4 -129.81,-132.9 -31.83,-57.4 -47.66,-123.4 -47.66,-197.8 0,-74.4 15.83,-140.3 47.66,-197.7 31.74,-57.5 75.07,-102.1 129.81,-133.9 54.75,-31.8 116.65,-47.6 185.57,-47.6 68.99,0 130.89,15.8 185.64,47.6 z m -473.61,-147 c -85.24,47.3 -151.81,112.5 -199.8,195.7 -48.08,83.1 -72.08,177.5 -72.08,282.9 0,105.5 24,199.8 72.08,283 47.99,83.2 114.56,148.1 199.8,194.7 85.16,46.7 181.14,70 287.97,70 106.81,0 202.55,-23.3 287.04,-70 84.49,-46.6 150.81,-111.5 198.81,-194.7 47.99,-83.2 71.99,-177.5 71.99,-283 0,-105.4 -24,-199.8 -71.99,-282.9 -48,-83.2 -114.32,-148.4 -198.81,-195.7 -84.49,-47.4 -180.23,-71 -287.04,-71 -106.83,0 -202.81,23.6 -287.97,71"
       style="fill:#79d1e4;fill-opacity:1;fill-rule:nonzero;stroke:none"
       id="path22"
       inkscape:connector-curvature="0" /><path
       transform="scale(0.1)"
       d="m 6709.06,6842.9 h 194.73 V 5337.8 h -194.73 v 1505.1"
       style="fill:#79d1e4;fill-opacity:1;fill-rule:nonzero;stroke:none"
       id="path24"
       inkscape:connector-curvature="0" /><path
       transform="scale(0.1)"
       d="m 7274.99,6412.9 h 194.72 V 5337.8 h -194.72 z m 3.08,243.4 c -25.08,24.3 -37.58,54.1 -37.58,89.3 0,35.1 12.5,65.2 37.58,90.2 25,25 56.41,37.6 94.32,37.6 37.83,0 69.24,-11.9 94.32,-35.5 25,-23.8 37.5,-53.2 37.5,-88.3 0,-36.5 -12.5,-67.3 -37.5,-92.3 -25.08,-25.1 -56.49,-37.5 -94.32,-37.5 -37.91,0 -69.32,12.2 -94.32,36.5"
       style="fill:#79d1e4;fill-opacity:1;fill-rule:nonzero;stroke:none"
       id="path26"
       inkscape:connector-curvature="0" /><path
       transform="scale(0.1)"
       d="m 8445.33,5400.7 c -28.41,-24.3 -63.57,-43 -105.49,-55.8 -41.91,-12.8 -85.15,-19.2 -129.81,-19.2 -108.24,0 -192.06,29 -251.55,87.2 -59.49,58.1 -89.24,141.2 -89.24,249.5 v 590.2 h -182.56 v 160.3 h 182.56 v 235.3 h 194.72 v -235.3 h 308.3 v -160.3 h -308.3 v -582.2 c 0,-58.1 14.5,-102.7 43.67,-133.8 28.99,-31.1 70.57,-46.6 124.73,-46.6 59.49,0 110.15,16.9 152.15,50.6 l 60.82,-139.9"
       style="fill:#79d1e4;fill-opacity:1;fill-rule:nonzero;stroke:none"
       id="path28"
       inkscape:connector-curvature="0" /><path
       transform="scale(0.1)"
       d="M 9682.67,6412.9 V 5337.8 h -184.56 v 162.3 c -39.25,-55.5 -90.99,-98.4 -155.15,-128.8 -64.24,-30.4 -134.23,-45.6 -209.97,-45.6 -143.32,0 -256.3,39.5 -338.71,118.6 -82.57,79.1 -123.73,195.7 -123.73,349.9 v 618.7 h 194.72 v -596.4 c 0,-104.1 25,-182.9 74.99,-236.3 50.08,-53.4 121.74,-80.1 215.06,-80.1 102.74,0 183.89,31.1 243.39,93.3 59.49,62.2 89.23,150.1 89.23,263.7 v 555.8 h 194.73"
       style="fill:#79d1e4;fill-opacity:1;fill-rule:nonzero;stroke:none"
       id="path30"
       inkscape:connector-curvature="0" /><path
       transform="scale(0.1)"
       d="m 10698.9,5543.7 c 55.4,31.8 98.6,76.4 129.8,133.9 31.1,57.4 46.6,123.3 46.6,197.7 0,74.4 -15.5,140.4 -46.6,197.8 -31.2,57.5 -74.4,101.8 -129.8,132.9 -55.5,31 -117,46.6 -184.7,46.6 -68.9,0 -130.8,-15.6 -185.5,-46.6 -54.8,-31.1 -98.1,-75.4 -129.9,-132.9 -31.8,-57.4 -47.6,-123.4 -47.6,-197.8 0,-74.4 15.8,-140.3 47.6,-197.7 31.8,-57.5 75.1,-102.1 129.9,-133.9 54.7,-31.8 116.6,-47.6 185.5,-47.6 67.7,0 129.2,15.8 184.7,47.6 z M 11068,6842.9 V 5337.8 h -186.6 v 170.4 c -43.3,-59.5 -98.1,-104.8 -164.3,-135.9 -66.3,-31.1 -139.3,-46.6 -219,-46.6 -104.2,0 -197.5,23 -280,68.9 -82.5,46 -147.1,110.5 -193.7,193.8 -46.69,83.1 -70.02,178.8 -70.02,286.9 0,108.2 23.33,203.6 70.02,286.1 46.6,82.4 111.2,146.6 193.7,192.6 82.5,46 175.8,69 280,69 77,0 148,-14.5 212.9,-43.6 64.9,-29 119,-72 162.3,-128.8 v 592.3 h 194.7"
       style="fill:#79d1e4;fill-opacity:1;fill-rule:nonzero;stroke:none"
       id="path32"
       inkscape:connector-curvature="0" /><path
       transform="scale(0.1)"
       d="m 11643.1,6173.5 c -62.9,-56.8 -99.8,-131.2 -110.6,-223.1 h 689.7 c -10.9,90.6 -47.7,164.7 -110.5,222.1 -62.9,57.5 -141,86.2 -234.3,86.2 -93.3,0 -171.4,-28.4 -234.3,-85.2 z m 761.6,-363.1 h -872.2 c 12.2,-94.6 53.8,-170.7 124.8,-228.2 71,-57.5 159.2,-86.1 264.7,-86.1 128.4,0 231.9,43.2 310.3,129.8 l 107.5,-125.8 c -48.6,-56.8 -109.1,-100.1 -181.5,-129.8 -72.4,-29.8 -153.1,-44.6 -242.4,-44.6 -113.6,0 -214.3,23.3 -302.2,70 -87.9,46.6 -155.9,111.8 -203.8,195.7 -48.1,83.8 -72.1,178.5 -72.1,283.9 0,104.2 23.3,198.2 70,282 46.6,83.8 110.9,149.1 192.7,195.7 81.8,46.7 174.1,70 276.9,70 102.7,0 194.4,-23.3 274.9,-70 80.4,-46.6 143.3,-111.9 188.6,-195.7 45.2,-83.8 67.9,-179.9 67.9,-288 0,-15 -1.3,-34.5 -4.1,-58.9"
       style="fill:#79d1e4;fill-opacity:1;fill-rule:nonzero;stroke:none"
       id="path34"
       inkscape:connector-curvature="0" /><path
       transform="scale(0.1)"
       d="m 14174.6,5573.1 c 83.1,47.3 148.7,112.6 196.7,195.7 48,83.2 72,176.2 72,278.9 0,102.8 -24,195.8 -72,279 -48,83.1 -113.6,148.4 -196.7,195.7 -83.3,47.3 -176.9,71 -281,71 -104.1,0 -198.5,-23.7 -283,-71 -84.5,-47.3 -150.8,-112.6 -198.8,-195.7 -48,-83.2 -72,-176.2 -72,-279 0,-102.7 24,-195.7 72,-278.9 48,-83.1 114.3,-148.4 198.8,-195.7 84.5,-47.3 178.9,-71 283,-71 104.1,0 197.7,23.7 281,71 z m -668.4,-157.2 c -114.9,62.9 -205.3,149.8 -270.8,260.6 -65.6,110.9 -98.4,234.7 -98.4,371.2 0,136.7 32.8,260.3 98.4,371.2 65.5,110.9 155.9,197.8 270.8,260.7 114.9,62.9 244,94.4 387.4,94.4 142,0 270.5,-31.5 385.4,-94.4 115,-62.9 204.9,-149.4 269.8,-259.6 64.9,-110.2 97.4,-234.3 97.4,-372.3 0,-137.9 -32.5,-261.9 -97.4,-372.2 -64.9,-110.2 -154.8,-196.7 -269.8,-259.6 -114.9,-62.8 -243.4,-94.3 -385.4,-94.3 -143.4,0 -272.5,31.5 -387.4,94.3"
       style="fill:#f4f6f5;fill-opacity:1;fill-rule:nonzero;stroke:none"
       id="path36"
       inkscape:connector-curvature="0" /><path
       transform="scale(0.1)"
       d="m 15060.9,5371.3 c -99.4,33.1 -177.4,76.1 -234.2,128.8 l 75,158.2 c 54.1,-48.7 123.4,-88.3 207.9,-118.7 84.5,-30.4 171.4,-45.5 260.6,-45.5 117.7,0 205.6,19.9 263.8,59.8 58.1,39.8 87.2,92.9 87.2,159.2 0,48.7 -15.9,88.2 -47.7,118.7 -31.8,30.4 -71,53.7 -117.6,69.9 -46.7,16.2 -112.6,34.5 -197.8,54.8 -106.8,25.7 -193.1,51.4 -258.7,77.1 -65.5,25.6 -121.6,65.2 -168.3,118.6 -46.6,53.4 -70,125.4 -70,216.1 0,75.7 20,144 59.9,204.9 39.9,60.8 100.4,109.4 181.5,145.9 81.2,36.6 181.9,54.9 302.2,54.9 83.9,0 166.3,-10.9 247.5,-32.5 81.2,-21.7 150.8,-52.8 209,-93.3 l -67,-162.3 c -59.5,37.8 -123.1,66.6 -190.7,86.2 -67.6,19.6 -133.9,29.4 -198.8,29.4 -114.9,0 -201.1,-20.9 -258.6,-62.8 -57.5,-41.9 -86.1,-96.1 -86.1,-162.3 0,-48.7 16.1,-88.3 48.6,-118.7 32.4,-30.4 72.7,-54.1 120.7,-71 48,-16.9 113.3,-34.8 195.8,-53.7 106.8,-25.8 192.6,-51.4 257.5,-77.1 64.9,-25.8 120.7,-64.9 167.4,-117.7 46.7,-52.7 70,-123.7 70,-212.9 0,-74.4 -20.3,-142.4 -60.9,-203.9 -40.6,-61.6 -102.1,-110.2 -184.6,-146.1 -82.5,-35.8 -183.9,-53.7 -304.3,-53.7 -106.8,0 -209.8,16.6 -309.3,49.7"
       style="fill:#f4f6f5;fill-opacity:1;fill-rule:nonzero;stroke:none"
       id="path38"
       inkscape:connector-curvature="0" /></g><g
     inkscape:groupmode="layer"
     id="layer1"
     inkscape:label="Logo"
     transform="matrix(1.3333333,0,0,-1.3333333,0,2666.6667)"
     style="display:inline"><path
       transform="scale(0.1)"
       d="m 11492.9,11322.5 c 233.8,219.2 153.5,524.9 70.2,670.3 -16.3,86.1 -36.9,169 -60.6,249.2 568,418.1 846.2,850.5 825.5,1285.6 -30.9,646.7 -707,1048 -735.8,1064.8 l -181.9,106 88.9,-190.9 c 189.1,-406.2 215.6,-708.8 78.9,-899.6 -184.2,-256.9 -621.3,-246.9 -732.5,-239.9 -210.1,225.2 -400.8,364.5 -474.3,414.7 v 77 l -381.31,208.3 -381.24,-208.3 v -77 c -73.58,-50.2 -264.22,-189.5 -474.31,-414.7 -111.22,-7 -548.29,-17 -732.54,239.9 -136.74,190.8 -110.19,493.4 78.93,899.6 l 88.89,190.9 -181.93,-106 c -28.76,-16.8 -704.94,-418.1 -735.76,-1064.9 -20.76,-435 257.45,-867.4 825.45,-1285.5 -23.67,-80.2 -44.32,-163.1 -60.55,-249.2 -83.38,-145.4 -163.76,-451.4 70.48,-670.7 -24.72,-83 -125.85,-291.8 -510.92,-276.7 l -141.11,5.8 86.11,-111.9 c 5.67,-7.4 120.52,-154.5 287.07,-206.2 -74.45,-158.3 -195.91,-539.7 -102.19,-1228.8 l 69.03,-507.6 61.86,508.5 c 7.45,61.3 25.58,169.4 54.85,283.5 3.55,-210.6 63.5,-451.7 270.29,-630.8 12.6,-136.3 99.98,-674.2 698.19,-921.1 55.35,-104.9 297.51,-523 707.6,-666.5 l 21.8,-7.6 21.81,7.6 c 410.1,143.5 652.2,561.6 707.6,666.5 598.2,246.9 685.6,784.8 698.2,921.1 206.7,179.1 266.7,420 270.3,630.5 29.2,-113.9 47.4,-221.9 54.9,-283.2 l 61.9,-507.6 68.9,506.7 c 93.8,689.1 -27.7,1070.5 -102.2,1228.8 166.6,51.7 281.4,198.8 287.1,206.2 l 86.1,111.9 -141.1,-5.8 c -381.8,-15.4 -484.9,194.3 -510.6,277.1"
       style="fill:#f4f6f5;fill-opacity:1;fill-rule:nonzero;stroke:none"
       id="path18"
       inkscape:connector-curvature="0" /></g></svg>