<?xml version="1.0" encoding="UTF-8" standalone="no"?>
<!-- Created with Inkscape (http://www.inkscape.org/) -->

<svg
   xmlns:dc="http://purl.org/dc/elements/1.1/"
   xmlns:cc="http://creativecommons.org/ns#"
   xmlns:rdf="http://www.w3.org/1999/02/22-rdf-syntax-ns#"
   xmlns:svg="http://www.w3.org/2000/svg"
   xmlns="http://www.w3.org/2000/svg"
   xmlns:sodipodi="http://sodipodi.sourceforge.net/DTD/sodipodi-0.dtd"
   xmlns:inkscape="http://www.inkscape.org/namespaces/inkscape"
   version="1.1"
   id="svg2"
   xml:space="preserve"
   width="2666.6667"
   height="2666.6667"
   viewBox="0 0 2666.6667 2666.6667"
   sodipodi:docname="logo_toEdit.svg"
   inkscape:version="0.92.3 (2405546, 2018-03-11)"
   inkscape:export-filename="/hdd/android/solitude-os/media/logo/welcome_wizard.png"
   inkscape:export-xdpi="96"
   inkscape:export-ydpi="96"><metadata
     id="metadata8"><rdf:RDF><cc:Work
         rdf:about=""><dc:format>image/svg+xml</dc:format><dc:type
           rdf:resource="http://purl.org/dc/dcmitype/StillImage" /><dc:title /></cc:Work></rdf:RDF></metadata><defs
     id="defs6" /><sodipodi:namedview
     pagecolor="#ffffff"
     bordercolor="#666666"
     borderopacity="1"
     objecttolerance="10"
     gridtolerance="10"
     guidetolerance="10"
     inkscape:pageopacity="0"
     inkscape:pageshadow="2"
     inkscape:window-width="1853"
     inkscape:window-height="1016"
     id="namedview4"
     showgrid="false"
     inkscape:zoom="0.17699999"
     inkscape:cx="-95.093452"
     inkscape:cy="838.26523"
     inkscape:window-x="67"
     inkscape:window-y="27"
     inkscape:window-maximized="1"
     inkscape:current-layer="layer2" /><g
     inkscape:groupmode="layer"
     id="layer2"
     inkscape:label="Text"
     transform="matrix(1.3333333,0,0,-1.3333333,0,2666.6667)"
     style="display:inline"><path
       transform="scale(0.1)"
       d="m 4294.3,5371.3 c -99.4,33.1 -177.47,76.1 -234.3,128.8 l 75.07,158.2 c 54.08,-48.7 123.4,-88.3 207.89,-118.7 84.49,-30.4 171.4,-45.5 260.63,-45.5 117.66,0 205.56,19.9 263.72,59.8 58.16,39.8 87.24,92.9 87.24,159.2 0,48.7 -15.92,88.2 -47.67,118.7 -31.82,30.4 -70.98,53.7 -117.64,69.9 -46.67,16.2 -112.57,34.5 -197.81,54.8 -106.82,25.7 -193.06,51.4 -258.63,77.1 -65.58,25.6 -121.65,65.2 -168.31,118.6 -46.66,53.4 -69.99,125.4 -69.99,216.1 0,75.7 19.91,144 59.82,204.9 39.91,60.8 100.4,109.4 181.56,145.9 81.16,36.6 181.89,54.9 302.21,54.9 83.82,0 166.31,-10.9 247.47,-32.5 81.15,-21.7 150.81,-52.8 208.97,-93.3 l -66.99,-162.3 c -59.49,37.8 -123.07,66.6 -190.65,86.2 -67.65,19.6 -133.89,29.4 -198.8,29.4 -114.9,0 -201.14,-20.9 -258.63,-62.8 -57.5,-41.9 -86.16,-96.1 -86.16,-162.3 0,-48.7 16.17,-88.3 48.66,-118.7 32.42,-30.4 72.66,-54.1 120.65,-71 48,-16.9 113.32,-34.8 195.81,-53.7 106.82,-25.8 192.64,-51.4 257.55,-77.1 64.91,-25.8 120.73,-64.9 167.39,-117.7 46.66,-52.7 69.99,-123.7 69.99,-212.9 0,-74.4 -20.33,-142.4 -60.9,-203.9 -40.58,-61.6 -102.07,-110.2 -184.56,-146.1 -82.49,-35.8 -183.9,-53.7 -304.3,-53.7 -106.81,0 -209.88,16.6 -309.29,49.7"
       style="fill:#79d1e4;fill-opacity:1;fill-rule:nonzero;stroke:none"
       id="path20"
       inkscape:connector-curvature="0" /><path
       transform="scale(0.1)"
       d="m 6067.07,5543.7 c 54.74,31.8 97.65,76.4 128.81,133.9 31.08,57.4 46.66,123.3 46.66,197.7 0,74.4 -15.58,140.4 -46.66,197.8 -31.16,57.5 -74.07,101.8 -128.81,132.9 -54.75,31 -116.65,46.6 -185.64,46.6 -68.92,0 -130.82,-15.6 -185.57,-46.6 -54.74,-31.1 -98.07,-75.4 -129.81,-132.9 -31.83,-57.4 -47.66,-123.4 -47.66,-197.8 0,-74.4 15.83,-140.3 47.66,-197.7 31.74,-57.5 75.07,-102.1 129.81,-133.9 54.75,-31.8 116.65,-47.6 185.57,-47.6 68.99,0 130.89,15.8 185.64,47.6 z m -473.61,-147 c -85.24,47.3 -151.81,112.5 -199.8,195.7 -48.08,83.1 -72.08,177.5 -72.08,282.9 0,105.5 24,199.8 72.08,283 47.99,83.2 114.56,148.1 199.8,194.7 85.16,46.7 181.14,70 287.97,70 106.81,0 202.55,-23.3 287.04,-70 84.49,-46.6 150.81,-111.5 198.81,-194.7 47.99,-83.2 71.99,-177.5 71.99,-283 0,-105.4 -24,-199.8 -71.99,-282.9 -48,-83.2 -114.32,-148.4 -198.81,-195.7 -84.49,-47.4 -180.23,-71 -287.04,-71 -106.83,0 -202.81,23.6 -287.97,71"
       style="fill:#79d1e4;fill-opacity:1;fill-rule:nonzero;stroke:none"
       id="path22"
       inkscape:connector-curvature="0" /><path
       transform="scale(0.1)"
       d="m 6709.06,6842.9 h 194.73 V 5337.8 h -194.73 v 1505.1"
       style="fill:#79d1e4;fill-opacity:1;fill-rule:nonzero;stroke:none"
       id="path24"
       inkscape:connector-curvature="0" /><path
       transform="scale(0.1)"
       d="m 7274.99,6412.9 h 194.72 V 5337.8 h -194.72 z m 3.08,243.4 c -25.08,24.3 -37.58,54.1 -37.58,89.3 0,35.1 12.5,65.2 37.58,90.2 25,25 56.41,37.6 94.32,37.6 37.83,0 69.24,-11.9 94.32,-35.5 25,-23.8 37.5,-53.2 37.5,-88.3 0,-36.5 -12.5,-67.3 -37.5,-92.3 -25.08,-25.1 -56.49,-37.5 -94.32,-37.5 -37.91,0 -69.32,12.2 -94.32,36.5"
       style="fill:#79d1e4;fill-opacity:1;fill-rule:nonzero;stroke:none"
       id="path26"
       inkscape:connector-curvature="0" /><path
       transform="scale(0.1)"
       d="m 8445.33,5400.7 c -28.41,-24.3 -63.57,-43 -105.49,-55.8 -41.91,-12.8 -85.15,-19.2 -129.81,-19.2 -108.24,0 -192.06,29 -251.55,87.2 -59.49,58.1 -89.24,141.2 -89.24,249.5 v 590.2 h -182.56 v 160.3 h 182.56 v 235.3 h 194.72 v -235.3 h 308.3 v -160.3 h -308.3 v -582.2 c 0,-58.1 14.5,-102.7 43.67,-133.8 28.99,-31.1 70.57,-46.6 124.73,-46.6 59.49,0 110.15,16.9 152.15,50.6 l 60.82,-139.9"
       style="fill:#79d1e4;fill-opacity:1;fill-rule:nonzero;stroke:none"
       id="path28"
       inkscape:connector-curvature="0" /><path
       transform="scale(0.1)"
       d="M 9682.67,6412.9 V 5337.8 h -184.56 v 162.3 c -39.25,-55.5 -90.99,-98.4 -155.15,-128.8 -64.24,-30.4 -134.23,-45.6 -209.97,-45.6 -143.32,0 -256.3,39.5 -338.71,118.6 -82.57,79.1 -123.73,195.7 -123.73,349.9 v 618.7 h 194.72 v -596.4 c 0,-104.1 25,-182.9 74.99,-236.3 50.08,-53.4 121.74,-80.1 215.06,-80.1 102.74,0 183.89,31.1 243.39,93.3 59.49,62.2 89.23,150.1 89.23,263.7 v 555.8 h 194.73"
       style="fill:#79d1e4;fill-opacity:1;fill-rule:nonzero;stroke:none"
       id="path30"
       inkscape:connector-curvature="0" /><path
       transform="scale(0.1)"
       d="m 10698.9,5543.7 c 55.4,31.8 98.6,76.4 129.8,133.9 31.1,57.4 46.6,123.3 46.6,197.7 0,74.4 -15.5,140.4 -46.6,197.8 -31.2,57.5 -74.4,101.8 -129.8,132.9 -55.5,31 -117,46.6 -184.7,46.6 -68.9,0 -130.8,-15.6 -185.5,-46.6 -54.8,-31.1 -98.1,-75.4 -129.9,-132.9 -31.8,-57.4 -47.6,-123.4 -47.6,-197.8 0,-74.4 15.8,-140.3 47.6,-197.7 31.8,-57.5 75.1,-102.1 129.9,-133.9 54.7,-31.8 116.6,-47.6 185.5,-47.6 67.7,0 129.2,15.8 184.7,47.6 z M 11068,6842.9 V 5337.8 h -186.6 v 170.4 c -43.3,-59.5 -98.1,-104.8 -164.3,-135.9 -66.3,-31.1 -139.3,-46.6 -219,-46.6 -104.2,0 -197.5,23 -280,68.9 -82.5,46 -147.1,110.5 -193.7,193.8 -46.69,83.1 -70.02,178.8 -70.02,286.9 0,108.2 23.33,203.6 70.02,286.1 46.6,82.4 111.2,146.6 193.7,192.6 82.5,46 175.8,69 280,69 77,0 148,-14.5 212.9,-43.6 64.9,-29 119,-72 162.3,-128.8 v 592.3 h 194.7"
       style="fill:#79d1e4;fill-opacity:1;fill-rule:nonzero;stroke:none"
       id="path32"
       inkscape:connector-curvature="0" /><path
       transform="scale(0.1)"
       d="m 11643.1,6173.5 c -62.9,-56.8 -99.8,-131.2 -110.6,-223.1 h 689.7 c -10.9,90.6 -47.7,164.7 -110.5,222.1 -62.9,57.5 -141,86.2 -234.3,86.2 -93.3,0 -171.4,-28.4 -234.3,-85.2 z m 761.6,-363.1 h -872.2 c 12.2,-94.6 53.8,-170.7 124.8,-228.2 71,-57.5 159.2,-86.1 264.7,-86.1 128.4,0 231.9,43.2 310.3,129.8 l 107.5,-125.8 c -48.6,-56.8 -109.1,-100.1 -181.5,-129.8 -72.4,-29.8 -153.1,-44.6 -242.4,-44.6 -113.6,0 -214.3,23.3 -302.2,70 -87.9,46.6 -155.9,111.8 -203.8,195.7 -48.1,83.8 -72.1,178.5 -72.1,283.9 0,104.2 23.3,198.2 70,282 46.6,83.8 110.9,149.1 192.7,195.7 81.8,46.7 174.1,70 276.9,70 102.7,0 194.4,-23.3 274.9,-70 80.4,-46.6 143.3,-111.9 188.6,-195.7 45.2,-83.8 67.9,-179.9 67.9,-288 0,-15 -1.3,-34.5 -4.1,-58.9"
       style="fill:#79d1e4;fill-opacity:1;fill-rule:nonzero;stroke:none"
       id="path34"
       inkscape:connector-curvature="0"
       inkscape:transform-center-x="32.485876"
       inkscape:transform-center-y="-161.72317" /><path
       transform="scale(0.1)"
       d="m 14174.6,5573.1 c 83.1,47.3 148.7,112.6 196.7,195.7 48,83.2 72,176.2 72,278.9 0,102.8 -24,195.8 -72,279 -48,83.1 -113.6,148.4 -196.7,195.7 -83.3,47.3 -176.9,71 -281,71 -104.1,0 -198.5,-23.7 -283,-71 -84.5,-47.3 -150.8,-112.6 -198.8,-195.7 -48,-83.2 -72,-176.2 -72,-279 0,-102.7 24,-195.7 72,-278.9 48,-83.1 114.3,-148.4 198.8,-195.7 84.5,-47.3 178.9,-71 283,-71 104.1,0 197.7,23.7 281,71 z m -668.4,-157.2 c -114.9,62.9 -205.3,149.8 -270.8,260.6 -65.6,110.9 -98.4,234.7 -98.4,371.2 0,136.7 32.8,260.3 98.4,371.2 65.5,110.9 155.9,197.8 270.8,260.7 114.9,62.9 244,94.4 387.4,94.4 142,0 270.5,-31.5 385.4,-94.4 115,-62.9 204.9,-149.4 269.8,-259.6 64.9,-110.2 97.4,-234.3 97.4,-372.3 0,-137.9 -32.5,-261.9 -97.4,-372.2 -64.9,-110.2 -154.8,-196.7 -269.8,-259.6 -114.9,-62.8 -243.4,-94.3 -385.4,-94.3 -143.4,0 -272.5,31.5 -387.4,94.3"
       style="fill:#f4f6f5;fill-opacity:1;fill-rule:nonzero;stroke:none"
       id="path36"
       inkscape:connector-curvature="0" /><path
       transform="scale(0.1)"
       d="m 15060.9,5371.3 c -99.4,33.1 -177.4,76.1 -234.2,128.8 l 75,158.2 c 54.1,-48.7 123.4,-88.3 207.9,-118.7 84.5,-30.4 171.4,-45.5 260.6,-45.5 117.7,0 205.6,19.9 263.8,59.8 58.1,39.8 87.2,92.9 87.2,159.2 0,48.7 -15.9,88.2 -47.7,118.7 -31.8,30.4 -71,53.7 -117.6,69.9 -46.7,16.2 -112.6,34.5 -197.8,54.8 -106.8,25.7 -193.1,51.4 -258.7,77.1 -65.5,25.6 -121.6,65.2 -168.3,118.6 -46.6,53.4 -70,125.4 -70,216.1 0,75.7 20,144 59.9,204.9 39.9,60.8 100.4,109.4 181.5,145.9 81.2,36.6 181.9,54.9 302.2,54.9 83.9,0 166.3,-10.9 247.5,-32.5 81.2,-21.7 150.8,-52.8 209,-93.3 l -67,-162.3 c -59.5,37.8 -123.1,66.6 -190.7,86.2 -67.6,19.6 -133.9,29.4 -198.8,29.4 -114.9,0 -201.1,-20.9 -258.6,-62.8 -57.5,-41.9 -86.1,-96.1 -86.1,-162.3 0,-48.7 16.1,-88.3 48.6,-118.7 32.4,-30.4 72.7,-54.1 120.7,-71 48,-16.9 113.3,-34.8 195.8,-53.7 106.8,-25.8 192.6,-51.4 257.5,-77.1 64.9,-25.8 120.7,-64.9 167.4,-117.7 46.7,-52.7 70,-123.7 70,-212.9 0,-74.4 -20.3,-142.4 -60.9,-203.9 -40.6,-61.6 -102.1,-110.2 -184.6,-146.1 -82.5,-35.8 -183.9,-53.7 -304.3,-53.7 -106.8,0 -209.8,16.6 -309.3,49.7"
       style="fill:#f4f6f5;fill-opacity:1;fill-rule:nonzero;stroke:none"
       id="path38"
       inkscape:connector-curvature="0" /><path
       style="fill:#266a78;fill-opacity:1;stroke-width:3.99495363"
       d=""
       id="path122"
       inkscape:connector-curvature="0"
       transform="matrix(0.75000002,0,0,-0.75000002,0,2000.0001)" /><path
       style="fill:#266a78;fill-opacity:1;stroke-width:3.99495363"
       d="m 1823.3117,1951.5528 c -43.9263,-13.3618 -68.6357,-46.9839 -68.4152,-93.0925 0.2629,-54.9638 40.0769,-91.892 99.1066,-91.9233 108.1954,-0.057 134.4083,147.0666 32.6024,182.9858 -17.3576,6.1242 -46.7368,7.0664 -63.2938,2.03 z m 72.0817,-29.8473 c 17.9313,-11.8664 31.813,-38.6159 31.813,-61.3027 0,-43.5029 -30.6244,-72.9054 -75.935,-72.9054 -82.9685,0 -103.1393,113.3091 -25.3164,142.2146 20.8932,7.7602 50.8291,4.3085 69.4384,-8.0065 z"
       id="path124"
       inkscape:connector-curvature="0"
       transform="matrix(0.75000002,0,0,-0.75000002,0,2000.0001)" /><path
       style="fill:#266a78;fill-opacity:1;stroke-width:3.99495363"
       d="m 2007.8244,1947.6843 c -26.7788,-9.2487 -30.7536,-13.026 -25.0067,-23.7641 l 4.417,-8.2534 14.9291,8.8232 c 11.9791,7.0798 21.1134,8.8232 46.2268,8.8232 29.3374,0 31.9022,-0.702 40.9483,-11.2089 11.7139,-13.6055 11.9913,-18.6949 1.7295,-31.7406 -5.7528,-7.3135 -16.9612,-12.4883 -40.9483,-18.9055 -50.8185,-13.5952 -67.0085,-26.9364 -66.9694,-55.1854 0.041,-29.8505 29.1205,-49.9564 71.8652,-49.6889 26.1194,0.1636 55.9583,8.9022 55.9583,16.388 0,13.817 -4.3149,15.9708 -19.2769,9.6218 -22.4108,-9.5097 -57.6718,-8.8511 -71.3715,1.3332 -13.3117,9.8959 -16.636,27.1191 -7.2386,37.5033 7.4726,8.257 16.2625,11.9378 56.3215,23.5848 37.8118,10.9936 49.5555,22.6502 49.5555,49.1881 0,16.3383 -1.9462,21.6835 -11.301,31.0383 -20.5267,20.5267 -61.6083,25.6467 -99.8388,12.4429 z"
       id="path126"
       inkscape:connector-curvature="0"
       transform="matrix(0.75000002,0,0,-0.75000002,0,2000.0001)" /></g><g
     inkscape:groupmode="layer"
     id="layer1"
     inkscape:label="Logo"
     transform="matrix(1.3333333,0,0,-1.3333333,0,2666.6667)"
     style="display:inline"><path
       style="fill:#266a78;fill-opacity:1;stroke-width:5.64971781"
       d="m 1298.091,1636.8483 c -14.9737,-10.3189 -34.9547,-30.5316 -44.4022,-44.9169 -9.4474,-14.3855 -21.9073,-27.8134 -27.6887,-29.8399 -30.9339,-10.8432 -70.9331,-62.4536 -79.6291,-102.7444 -2.172,-10.0632 -6.3321,-19.7696 -9.2448,-21.5697 -9.5671,-5.9129 -27.7296,-46.9279 -27.905,-63.0158 -0.3013,-27.6439 -10.7684,-0.8295 -15.1834,38.8965 l -3.9716,35.7372 -4.0421,-25.4237 c -7.035,-44.2484 -5.3465,-137.8961 2.9856,-165.5814 7.1943,-23.905 7.0296,-26.3996 -1.9313,-29.2436 -5.3881,-1.7101 -15.7265,-9.4216 -22.9744,-17.1365 l -13.1778,-14.0272 h 15.2906 c 19.5229,0 49.3379,-12.41 59.6299,-24.8199 6.9077,-8.3292 6.718,-12.2658 -1.4124,-29.3155 -11.6421,-24.4137 -11.7897,-40.3962 -0.7243,-78.4596 l 8.6672,-29.8142 -39.6569,-38.28552 c -22.1582,-21.39194 -45.9263,-50.86646 -53.865,-66.79737 -28.8942,-57.98314 -13.6615,-123.5325 40.3959,-173.83097 24.0589,-22.38594 52.747,-42.88803 52.7378,-37.68931 0,0.88617 -5.2402,15.39116 -11.6416,32.23331 -30.3512,79.85564 -5.6914,126.95514 70.1898,134.06027 l 29.0253,2.71779 37.4764,-36.38112 c 51.8154,-50.30094 66.7518,-58.57969 89.0355,-49.34944 9.5715,3.96461 35.8693,24.68749 58.4397,46.05084 31.9492,30.24055 44.7906,38.84697 57.9863,38.86284 28.8464,0.0345 60.5366,-11.56147 77.2384,-28.26322 13.3366,-13.33662 15.9819,-20.71955 15.9819,-44.60452 0,-15.74242 -5.0835,-41.99731 -11.2966,-58.3442 -6.2131,-16.34689 -11.2978,-31.71785 -11.2994,-34.15769 0,-7.41147 22.8033,7.21927 49.234,31.5823 35.5956,32.8108 52.9344,65.16072 56.6017,105.6043 2.7233,30.03191 1.0489,37.99568 -14.7249,70.03682 -12.1002,24.57902 -29.7229,47.30754 -55.0506,71.00029 l -37.2531,34.8485 6.7921,23.648 c 12.6817,44.1534 13.3014,61.5136 2.8863,80.8534 -5.464,10.146 -8.4747,22.252 -6.6903,26.902 5.0272,13.1006 28.2019,25.9859 54.9491,30.552 l 24.3149,4.1509 -17.7234,14.9132 c -9.7479,8.2023 -20.3079,15.7921 -23.4666,16.8661 -3.6784,1.2508 -2.7379,11.9237 2.6161,29.6869 8.8436,29.341 10.5354,106.7275 3.2842,150.2321 l -4.2375,25.4237 -4.6011,-28.2486 c -7.4259,-45.5909 -11.933,-53.713 -15.9772,-28.7916 -1.9004,11.7107 -10.9497,33.1491 -20.1096,47.6408 -9.1599,14.4917 -18.3521,34.464 -20.4271,44.3829 -5.3162,25.4119 -32.5958,60.9243 -60.8849,79.2595 -13.2301,8.5749 -26.1734,18.9462 -28.7628,23.0474 -18.9399,29.9968 -76.2691,80.2237 -91.5679,80.2237 -3.8555,0 -19.2613,-8.4428 -34.2351,-18.7617 z"
       id="path120"
       inkscape:connector-curvature="0"
       transform="matrix(0.75000002,0,0,-0.75000002,0,2000.0001)" /></g></svg>